<mxfile host="app.diagrams.net" modified="2023-11-23T02:27:05.167Z" agent="Mozilla/5.0 (Windows NT 10.0; Win64; x64) AppleWebKit/537.36 (KHTML, like Gecko) Chrome/108.0.0.0 Safari/537.36" etag="P6Gamy8l7M6C7aypNbtw" version="22.1.3" type="github">
  <diagram id="C5RBs43oDa-KdzZeNtuy" name="Page-1">
    <mxGraphModel dx="2261" dy="764" grid="1" gridSize="10" guides="1" tooltips="1" connect="1" arrows="1" fold="1" page="1" pageScale="1" pageWidth="827" pageHeight="1169" math="0" shadow="0">
      <root>
        <mxCell id="WIyWlLk6GJQsqaUBKTNV-0" />
        <mxCell id="WIyWlLk6GJQsqaUBKTNV-1" parent="WIyWlLk6GJQsqaUBKTNV-0" />
        <mxCell id="WIyWlLk6GJQsqaUBKTNV-2" value="" style="rounded=0;html=1;jettySize=auto;orthogonalLoop=1;fontSize=11;endArrow=block;endFill=0;endSize=8;strokeWidth=1;shadow=0;labelBackgroundColor=none;edgeStyle=orthogonalEdgeStyle;" parent="WIyWlLk6GJQsqaUBKTNV-1" source="WIyWlLk6GJQsqaUBKTNV-3" target="WIyWlLk6GJQsqaUBKTNV-6" edge="1">
          <mxGeometry relative="1" as="geometry" />
        </mxCell>
        <mxCell id="WIyWlLk6GJQsqaUBKTNV-3" value="begin" style="rounded=1;whiteSpace=wrap;html=1;fontSize=12;glass=0;strokeWidth=1;shadow=0;" parent="WIyWlLk6GJQsqaUBKTNV-1" vertex="1">
          <mxGeometry x="400" y="80" width="120" height="40" as="geometry" />
        </mxCell>
        <mxCell id="L4HEz3MR0jIcHLfYuNsw-0" style="edgeStyle=orthogonalEdgeStyle;rounded=0;orthogonalLoop=1;jettySize=auto;html=1;" edge="1" parent="WIyWlLk6GJQsqaUBKTNV-1" source="WIyWlLk6GJQsqaUBKTNV-6" target="WIyWlLk6GJQsqaUBKTNV-11">
          <mxGeometry relative="1" as="geometry" />
        </mxCell>
        <mxCell id="L4HEz3MR0jIcHLfYuNsw-1" value="Yes" style="edgeLabel;html=1;align=center;verticalAlign=middle;resizable=0;points=[];" vertex="1" connectable="0" parent="L4HEz3MR0jIcHLfYuNsw-0">
          <mxGeometry x="-0.2667" y="4" relative="1" as="geometry">
            <mxPoint as="offset" />
          </mxGeometry>
        </mxCell>
        <mxCell id="WIyWlLk6GJQsqaUBKTNV-6" value="is game cp?" style="rhombus;whiteSpace=wrap;html=1;shadow=0;fontFamily=Helvetica;fontSize=12;align=center;strokeWidth=1;spacing=6;spacingTop=-4;" parent="WIyWlLk6GJQsqaUBKTNV-1" vertex="1">
          <mxGeometry x="410" y="170" width="100" height="80" as="geometry" />
        </mxCell>
        <mxCell id="L4HEz3MR0jIcHLfYuNsw-3" value="" style="edgeStyle=orthogonalEdgeStyle;rounded=0;orthogonalLoop=1;jettySize=auto;html=1;" edge="1" parent="WIyWlLk6GJQsqaUBKTNV-1" source="WIyWlLk6GJQsqaUBKTNV-11" target="L4HEz3MR0jIcHLfYuNsw-2">
          <mxGeometry relative="1" as="geometry" />
        </mxCell>
        <mxCell id="WIyWlLk6GJQsqaUBKTNV-11" value="Complete the game url value" style="rounded=1;whiteSpace=wrap;html=1;fontSize=12;glass=0;strokeWidth=1;shadow=0;" parent="WIyWlLk6GJQsqaUBKTNV-1" vertex="1">
          <mxGeometry x="400" y="350" width="120" height="40" as="geometry" />
        </mxCell>
        <mxCell id="L4HEz3MR0jIcHLfYuNsw-2" value="end" style="whiteSpace=wrap;html=1;rounded=1;glass=0;strokeWidth=1;shadow=0;" vertex="1" parent="WIyWlLk6GJQsqaUBKTNV-1">
          <mxGeometry x="600" y="340" width="120" height="60" as="geometry" />
        </mxCell>
        <mxCell id="L4HEz3MR0jIcHLfYuNsw-4" style="edgeStyle=orthogonalEdgeStyle;rounded=0;orthogonalLoop=1;jettySize=auto;html=1;entryX=0.567;entryY=0.05;entryDx=0;entryDy=0;entryPerimeter=0;" edge="1" parent="WIyWlLk6GJQsqaUBKTNV-1" source="WIyWlLk6GJQsqaUBKTNV-6" target="L4HEz3MR0jIcHLfYuNsw-2">
          <mxGeometry relative="1" as="geometry" />
        </mxCell>
        <mxCell id="L4HEz3MR0jIcHLfYuNsw-5" value="No" style="edgeLabel;html=1;align=center;verticalAlign=middle;resizable=0;points=[];" vertex="1" connectable="0" parent="L4HEz3MR0jIcHLfYuNsw-4">
          <mxGeometry x="-0.3952" y="-5" relative="1" as="geometry">
            <mxPoint as="offset" />
          </mxGeometry>
        </mxCell>
        <mxCell id="L4HEz3MR0jIcHLfYuNsw-6" value="&lt;h1&gt;Api Design&lt;/h1&gt;&lt;p&gt;For example:&lt;/p&gt;&lt;p&gt;&lt;br&gt;&lt;/p&gt;&lt;p&gt;&amp;nbsp;&quot;urls&quot;: [&lt;/p&gt;&lt;p&gt;&amp;nbsp; &amp;nbsp; {&lt;/p&gt;&lt;p&gt;&amp;nbsp; &amp;nbsp; &amp;nbsp; &quot;adFrom&quot;: &quot;SSAI&quot;,&lt;/p&gt;&lt;p&gt;&amp;nbsp; &amp;nbsp; &amp;nbsp; &quot;mimeType&quot;: &quot;M3U&quot;,&lt;/p&gt;&lt;p&gt;&amp;nbsp; &amp;nbsp; &amp;nbsp; &quot;sourceIcon&quot;: &quot;http://cache.zeasn.tv/prod/REC/source/icon/TvGame_100.jpg&quot;,&lt;/p&gt;&lt;p&gt;&amp;nbsp; &amp;nbsp; &amp;nbsp; &quot;sourceName&quot;: &quot;TvGame&quot;,&lt;/p&gt;&lt;p&gt;&amp;nbsp; &amp;nbsp; &amp;nbsp; &quot;value&quot;: &quot;http://xxx.m3u8&quot;&lt;/p&gt;&lt;p&gt;&amp;nbsp; &amp;nbsp; },&lt;/p&gt;&lt;p&gt;&amp;nbsp; &amp;nbsp; &amp;nbsp; {&lt;/p&gt;&lt;p&gt;&amp;nbsp; &amp;nbsp; &amp;nbsp; &quot;adFrom&quot;: &quot;SSAI&quot;,&lt;/p&gt;&lt;p&gt;&amp;nbsp; &amp;nbsp; &amp;nbsp; &quot;mimeType&quot;: &quot;TEXT&quot;,&lt;/p&gt;&lt;p&gt;&amp;nbsp; &amp;nbsp; &amp;nbsp; &quot;sourceIcon&quot;: &quot;http://cache.zeasn.tv/prod/REC/source/icon/TvGame_100.jpg&quot;,&lt;/p&gt;&lt;p&gt;&amp;nbsp; &amp;nbsp; &amp;nbsp; &quot;sourceName&quot;: &quot;TvGame&quot;,&lt;/p&gt;&lt;p&gt;&amp;nbsp; &amp;nbsp; &amp;nbsp; &lt;font color=&quot;#ff33ff&quot;&gt;&quot;value&quot;: &quot;rapid_drift/index.html&quot;&lt;/font&gt;&lt;/p&gt;&lt;p&gt;&amp;nbsp; &amp;nbsp; }&lt;/p&gt;&lt;p&gt;&amp;nbsp; ]&lt;/p&gt;&lt;p&gt;&lt;br&gt;&lt;/p&gt;&lt;p&gt;After Complete the game url value:&lt;/p&gt;&lt;p&gt;&lt;br&gt;&lt;/p&gt;&lt;p&gt;&amp;nbsp;&quot;urls&quot;: [&lt;/p&gt;&lt;p&gt;&amp;nbsp; &amp;nbsp; {&lt;/p&gt;&lt;p&gt;&amp;nbsp; &amp;nbsp; &amp;nbsp; &quot;adFrom&quot;: &quot;SSAI&quot;,&lt;/p&gt;&lt;p&gt;&amp;nbsp; &amp;nbsp; &amp;nbsp; &quot;mimeType&quot;: &quot;M3U&quot;,&lt;/p&gt;&lt;p&gt;&amp;nbsp; &amp;nbsp; &amp;nbsp; &quot;sourceIcon&quot;: &quot;http://cache.zeasn.tv/prod/REC/source/icon/TvGame_100.jpg&quot;,&lt;/p&gt;&lt;p&gt;&amp;nbsp; &amp;nbsp; &amp;nbsp; &quot;sourceName&quot;: &quot;TvGame&quot;,&lt;/p&gt;&lt;p&gt;&amp;nbsp; &amp;nbsp; &amp;nbsp; &quot;value&quot;: &quot;http://xxx.m3u8&quot;&lt;/p&gt;&lt;p&gt;&amp;nbsp; &amp;nbsp; },&lt;/p&gt;&lt;p&gt;&amp;nbsp; &amp;nbsp; &amp;nbsp; {&lt;/p&gt;&lt;p&gt;&amp;nbsp; &amp;nbsp; &amp;nbsp; &quot;adFrom&quot;: &quot;SSAI&quot;,&lt;/p&gt;&lt;p&gt;&amp;nbsp; &amp;nbsp; &amp;nbsp; &quot;mimeType&quot;: &quot;TEXT&quot;,&lt;/p&gt;&lt;p&gt;&amp;nbsp; &amp;nbsp; &amp;nbsp; &quot;sourceIcon&quot;: &quot;http://cache.zeasn.tv/prod/REC/source/icon/TvGame_100.jpg&quot;,&lt;/p&gt;&lt;p&gt;&amp;nbsp; &amp;nbsp; &amp;nbsp; &quot;sourceName&quot;: &quot;TvGame&quot;,&lt;/p&gt;&lt;p&gt;&amp;nbsp; &amp;nbsp; &amp;nbsp; &lt;font color=&quot;#ff33ff&quot;&gt;&lt;b&gt;&quot;value&quot;: &quot;https://cache.zeasn.tv/dev/whalelive/game/rapid_drift/index.html&quot;&lt;/b&gt;&lt;/font&gt;&lt;/p&gt;&lt;p&gt;&amp;nbsp; &amp;nbsp; }&lt;/p&gt;&lt;p&gt;&amp;nbsp; ]&lt;/p&gt;" style="text;html=1;strokeColor=none;fillColor=none;spacing=5;spacingTop=-20;whiteSpace=wrap;overflow=hidden;rounded=0;" vertex="1" parent="WIyWlLk6GJQsqaUBKTNV-1">
          <mxGeometry x="-20" y="20" width="480" height="1110" as="geometry" />
        </mxCell>
      </root>
    </mxGraphModel>
  </diagram>
</mxfile>
